{"title":"The Holding (2011) DVDSCR - XVID - NoGrp Stumpie1971","uid":6673486,"size":759187456,"categoryP":"video","categoryS":"movies","magnet":"?xt=urn:btih:9a0ccd6d73bc1589b19f4b2aded29f06650e082d&amp;dn=The+Holding+%282011%29+DVDSCR+-+XVID+-+NoGrp+Stumpie1971&amp;tr=udp%3A%2F%2Ftracker.openbittorrent.com%3A80&amp;tr=udp%3A%2F%2Fopen.demonii.com%3A1337&amp;tr=udp%3A%2F%2Ftracker.coppersurfer.tk%3A6969&amp;tr=udp%3A%2F%2Fexodus.desync.com%3A6969","seeders":0,"leechers":0,"uploader":"stumpie1971","files":-1,"time":1315952091,"description":"Full Credits To Feel Free :)\n\n ######## ######## ######## ##          ######## ########  ######## ######## \n ##       ##       ##       ##          ##       ##     ## ##       ##       \n ##       ##       ##       ##          ##       ##     ## ##       ##       \n ######   ######   ######   ##          ######   ########  ######   ######   \n ##       ##       ##       ##          ##       ##   ##   ##       ##       \n ##       ##       ##       ##          ##       ##    ##  ##       ##       \n ##       ######## ######## ########    ##       ##     ## ######## ########\n\nGenre:Thriller \n Language:English\n IMDb:  &lt;a href=&quot;\nhttp://www.imdb.com/title/tt1582621/&quot; rel=&quot;nofollow&quot; target=&quot;_NEW&quot;&gt;\nhttp://www.imdb.com/title/tt1582621/&lt;/a&gt;\n Source:DVDSCR-NoGrp Thanks!\n\n Format : AVI\n Format/Info : Audio Video Interleave\n File size : 804 MiB\n Duration : 1h 28mn\n Overall bit rate : 1 264 Kbps\n\n Video\n ID : 0\n Format : MPEG-4 Visual\n Format profile : Advanced Simple@L5\n Format settings, BVOP : Yes\n Format settings, QPel : No\n Format settings, GMC : No warppoints\n Format settings, Matrix : Default (H.263)\n Codec ID : XVID\n Codec ID/Hint : XviD\n Duration : 1h 28mn\n Bit rate : 1 030 Kbps\n Width : 720 pixels\n Height : 304 pixels\n Display aspect ratio : 2.35:1\n Frame rate : 25.000 fps\n Color space : YUV\n Chroma subsampling : 4:2:0\n Bit depth : 8 bits\n Scan type : Progressive\n Bits/(Pixel*Frame) : 0.188\n Stream size : 655 MiB (82%)\n Writing library : XviD 1.2.1 (UTC 2008-12-04)\n\n Audio\n ID : 1\n Format : AC-3\n Format/Info : Audio Coding 3\n Mode extension : CM (complete main)\n Codec ID : 2000\n Duration : 1h 28mn\n Bit rate mode : Constant\n Bit rate : 224 Kbps\n Channel(s) : 2 channels\n Channel positions : Front: L R\n Sampling rate : 48.0 KHz\n Bit depth : 16 bits\n Stream size : 142 MiB (18%)\n Alignment : Aligned on interleaves\n Interleave, duration : 40 ms (1.00 video frame)\n Interleave, preload duration : 512 ms\n\n\n Plot:\n A heart-pounding suspense thriller, set on an isolated farm in England's beautiful, rugged Peak District\n\n\nGreets:\n\n INK,CRYS,IMAGINE,LKRG,FXG,3Li,FLAWL3SS,TA,iLLUSiON,ViSiON,DTRG \n SAFCuk009,LU,TheFalcon007,MYSTiC,PrisM,Noir,WBZ,LAP,Rx,Kingdom,SAFCuk009+Fabreezy,\n HDLiTE,TWiZTED,ExtraTorrentRG.ELEKTRI4KA,MAGNAT,CM8\n And to all the other p2p grps past and present\n\n","torrent":{"xt":"urn:btih:9a0ccd6d73bc1589b19f4b2aded29f06650e082d","amp;dn":"The+Holding+%282011%29+DVDSCR+-+XVID+-+NoGrp+Stumpie1971","amp;tr":["udp%3A%2F%2Ftracker.openbittorrent.com%3A80","udp%3A%2F%2Fopen.demonii.com%3A1337","udp%3A%2F%2Ftracker.coppersurfer.tk%3A6969","udp%3A%2F%2Fexodus.desync.com%3A6969"],"infoHash":"9a0ccd6d73bc1589b19f4b2aded29f06650e082d","infoHashBuffer":{"type":"Buffer","data":[154,12,205,109,115,188,21,137,177,159,75,42,222,210,159,6,101,14,8,45]},"announce":[],"urlList":[]}}